<svg width="29" height="34" viewBox="0 0 29 34" fill="none" xmlns="http://www.w3.org/2000/svg">
<path d="M0.881041 33.3096C0.637025 33.1107 0.445269 32.8738 0.31748 32.6131C0.18969 32.3524 0.128577 32.0735 0.137737 31.7931V3.13447C0.129028 2.84744 0.19014 2.56184 0.317629 2.29397C0.445268 2.0261 0.636574 1.78121 0.881041 1.57329C1.1207 1.36773 1.41158 1.20576 1.73428 1.0981C2.05713 0.990445 2.40446 0.939564 2.75329 0.948825H26.1556C26.4852 0.942322 26.8127 0.992646 27.1165 1.09646C27.4203 1.20027 27.6933 1.35521 27.9176 1.55099C28.1565 1.73438 28.3459 1.95589 28.4738 2.20157C28.6017 2.44725 28.6656 2.71173 28.6609 2.97834C28.6704 3.24223 28.6088 3.50461 28.4804 3.74726C28.352 3.98989 28.16 4.20697 27.9176 4.3834C27.6838 4.57063 27.4064 4.71833 27.1016 4.81788C26.7968 4.91744 26.4705 4.96685 26.1418 4.96326H5.45143V15.4008H24.063C24.3926 15.3943 24.7202 15.4446 25.0239 15.5485C25.3277 15.6522 25.6009 15.8072 25.8251 16.0029C26.0614 16.1879 26.2491 16.4098 26.3769 16.655C26.5047 16.9004 26.5697 17.1641 26.5685 17.4304C26.578 17.6942 26.5164 17.9566 26.388 18.1993C26.2596 18.4418 26.0676 18.6589 25.8251 18.8353C25.5931 19.0213 25.318 19.1681 25.0155 19.2677C24.7131 19.3673 24.3893 19.4174 24.063 19.4152H5.45143V29.8973H26.1418C26.4736 29.8893 26.8038 29.9388 27.1102 30.0427C27.4165 30.1466 27.6917 30.3023 27.9176 30.4996C28.1582 30.6842 28.3487 30.9076 28.4767 31.1552C28.6047 31.4029 28.6674 31.6695 28.6609 31.9381C28.6704 32.2019 28.6088 32.4643 28.4804 32.707C28.352 32.9495 28.16 33.1667 27.9176 33.343C27.6827 33.5283 27.4048 33.6739 27.0999 33.7716C26.7951 33.8693 26.4694 33.9168 26.1418 33.9118H2.75329C2.40536 33.9323 2.05623 33.8888 1.73202 33.7845C1.40782 33.6802 1.1168 33.5178 0.881041 33.3096Z" fill="white"/>
</svg>
