<svg width="38" height="35" viewBox="0 0 38 35" fill="none" xmlns="http://www.w3.org/2000/svg">
<path d="M37.5145 31.2023L23.1153 2.90057C22.868 2.27711 22.3857 1.73209 21.7363 1.34207C21.087 0.952046 20.303 0.736626 19.4947 0.726074H18.2284C17.4224 0.738933 16.6416 0.955416 15.995 1.34527C15.3482 1.73513 14.8681 2.27888 14.6216 2.90057L8.35807 15.2338H3.60879C2.92592 15.2397 2.27327 15.4627 1.79166 15.8549C1.31006 16.2472 1.03813 16.7771 1.03456 17.3302V17.3526C1.03813 17.9057 1.31006 18.4356 1.79166 18.8278C2.27327 19.22 2.92592 19.4431 3.60879 19.4489H6.15551L0.181066 31.2023C0.0672517 31.4602 0.00678551 31.7315 0.00210722 32.0052C-0.025892 32.5834 0.226032 33.1476 0.704173 33.5775C0.951482 33.7828 1.25024 33.9428 1.58031 34.0467C1.91038 34.1505 2.26411 34.1959 2.61765 34.1797C3.15254 34.1735 3.67192 34.0333 4.10438 33.7783C4.55453 33.5051 4.90625 33.1393 5.12306 32.7189L11.717 19.4489H16.2735C16.9587 19.446 17.615 19.2242 18.0995 18.8317C18.5841 18.4392 18.8579 17.9076 18.8615 17.3526V17.2967C18.8579 16.7417 18.5841 16.2101 18.0995 15.8176C17.615 15.425 16.9587 15.2033 16.2735 15.2004H13.8369L18.8615 5.03045L32.5586 32.7189C32.7755 33.1393 33.1273 33.5051 33.5774 33.7783C34.0098 34.0333 34.5292 34.1735 35.0641 34.1797C35.4199 34.1975 35.7764 34.153 36.109 34.0491C36.4416 33.9451 36.7425 33.7843 36.9913 33.5775C37.4645 33.1459 37.7114 32.5819 37.6797 32.0052C37.6969 31.7311 37.6406 31.4572 37.5145 31.2023Z" fill="white"/>
</svg>
