<svg width="38" height="35" viewBox="0 0 38 35" fill="none" xmlns="http://www.w3.org/2000/svg">
<path d="M14.6836 32.005L0.284449 3.70324C0.170625 3.44541 0.110106 3.17413 0.105451 2.90035C0.0773704 2.32213 0.329349 1.75794 0.80747 1.32803C1.05479 1.12273 1.35362 0.962758 1.68368 0.858885C2.01373 0.755012 2.36737 0.709653 2.72101 0.725865C3.25589 0.731997 3.7753 0.872243 4.20777 1.12731C4.65781 1.40049 5.00965 1.76626 5.22634 2.18668L18.9235 29.8751L32.6207 2.18668C32.8414 1.76493 33.1979 1.39903 33.6532 1.12731C34.0857 0.872243 34.6051 0.731997 35.14 0.725865C35.4912 0.711266 35.8423 0.757413 36.1698 0.861239C36.4973 0.965064 36.7939 1.12419 37.0396 1.32803C37.5228 1.7562 37.7797 2.3206 37.7554 2.90035C37.7507 3.17413 37.6904 3.44541 37.5765 3.70324L23.1772 32.005C22.9308 32.6267 22.4506 33.1704 21.804 33.5603C21.1573 33.9502 20.3765 34.1667 19.5706 34.1795H18.2903C17.4843 34.1667 16.7036 33.9502 16.0569 33.5603C15.4103 33.1704 14.9302 32.6267 14.6836 32.005Z" fill="white"/>
</svg>
