<svg width="28" height="28" viewBox="0 0 28 28" fill="none" xmlns="http://www.w3.org/2000/svg">
<path d="M15.3332 24.5838C18.023 24.2416 20.4814 22.888 22.209 20.7982C23.9365 18.7084 24.8035 16.0392 24.6337 13.3331C24.464 10.627 23.2701 8.08715 21.2949 6.22968C19.3197 4.3722 16.7113 3.33653 13.9999 3.33317C11.2852 3.33115 8.67184 4.36429 6.69236 6.22207C4.71288 8.07986 3.51623 10.6225 3.34623 13.3319C3.17623 16.0413 4.04569 18.7135 5.77743 20.8042C7.50917 22.8948 9.97289 24.2465 12.6666 24.5838V16.6665H9.99991V13.9998H12.6666V11.7945C12.6666 10.0118 12.8532 9.36517 13.1999 8.71317C13.5414 8.06808 14.0692 7.54075 14.7146 7.19984C15.2239 6.9265 15.8572 6.7625 16.9639 6.69184C17.4026 6.66384 17.9706 6.6985 18.6679 6.7985V9.33184H17.9999C16.7772 9.33184 16.2719 9.38917 15.9706 9.5505C15.7908 9.64298 15.6444 9.78937 15.5519 9.96917C15.3919 10.2705 15.3332 10.5692 15.3332 11.7932V13.9998H18.6666L17.9999 16.6665H15.3332V24.5838ZM13.9999 27.3332C6.63591 27.3332 0.666573 21.3638 0.666573 13.9998C0.666573 6.63584 6.63591 0.666504 13.9999 0.666504C21.3639 0.666504 27.3332 6.63584 27.3332 13.9998C27.3332 21.3638 21.3639 27.3332 13.9999 27.3332Z" fill="#E3E6FF"/>
</svg>
