<svg width="1440" height="19" viewBox="0 0 1440 19" fill="none" xmlns="http://www.w3.org/2000/svg">
<path d="M1439 17.9653C1363.78 17.1058 1303 7.93645 1225.5 9.15251C1164.64 10.1098 1105.24 14.0077 1043.84 13.7996C991.414 13.6186 939.511 10.1912 887.749 8.81231C832.588 7.3429 779.627 7.63968 727.195 11.2734C666.349 15.4916 612.278 13.2169 553.77 8.64944C528.608 6.68963 504.076 4.09283 478.184 2.45332C450.684 0.714284 422.055 0.855435 393.905 1.99911C329.452 4.61943 272.123 12.5582 206.93 14.2737C138.32 16.0833 66.0321 6.93574 0.0796868 12.189" stroke="url(#paint0_linear_0_5324)" stroke-width="0.3" stroke-miterlimit="10"/>
<defs>
<linearGradient id="paint0_linear_0_5324" x1="-1.0346e+06" y1="-8446.19" x2="-1.0346e+06" y2="-8234.39" gradientUnits="userSpaceOnUse">
<stop stop-color="#592CB8"/>
<stop offset="1" stop-color="#2C66B8"/>
</linearGradient>
</defs>
</svg>
