<svg width="1440" height="15" viewBox="0 0 1440 15" fill="none" xmlns="http://www.w3.org/2000/svg">
<path d="M1439.14 13.1993C1368.5 12.499 1309.23 4.15124 1236.61 6.02057C1179.25 7.49722 1127.35 12.8211 1070.04 14.2797C1012.52 15.7472 950.683 12.3977 894.394 10.4632C840.433 8.6047 785.623 6.73718 730.392 7.00139C680.199 7.24206 629.885 9.26159 579.621 8.37307C549.703 7.84286 524.421 5.87581 496.681 3.99743C468.701 2.10276 439.043 1.18167 409.244 0.908416C344.291 0.309434 282.396 3.13786 218.622 4.68327C145.914 6.44583 71.728 6.54355 0.229582 9.77552" stroke="url(#paint0_linear_0_5309)" stroke-width="0.3" stroke-miterlimit="10"/>
<defs>
<linearGradient id="paint0_linear_0_5309" x1="-1.03459e+06" y1="-6935.8" x2="-1.03459e+06" y2="-6761.87" gradientUnits="userSpaceOnUse">
<stop stop-color="#592CB8"/>
<stop offset="1" stop-color="#2C66B8"/>
</linearGradient>
</defs>
</svg>
