<svg width="1440" height="28" viewBox="0 0 1440 28" fill="none" xmlns="http://www.w3.org/2000/svg">
<path d="M1439.93 12.3939C1383.59 12.4283 1323.16 11.7606 1267.62 13.4996C1180.37 16.2321 1097.89 22.5947 1011.28 25.8538C979.003 27.0681 948.605 27.8209 917.258 25.5661C891.826 23.7257 870.152 20.5679 849.427 17.412C812.743 11.8329 773.322 4.41714 722.518 3.79283C690.052 3.3929 657.405 6.46019 629.366 9.05699C598.258 11.9379 568.35 15.2205 537.252 18.1051C508.673 20.7543 474.697 24.0044 441.521 23.3258C412.202 22.7268 385.831 19.3627 363.467 16.1235C319.819 9.78988 272.073 -0.680542 210.218 0.379892C136.092 1.64662 75.8852 11.3606 0.969328 12.4012" stroke="url(#paint0_linear_0_5268)" stroke-width="0.3" stroke-miterlimit="10"/>
<defs>
<linearGradient id="paint0_linear_0_5268" x1="-1.03463e+06" y1="-13412" x2="-1.03463e+06" y2="-13075.8" gradientUnits="userSpaceOnUse">
<stop stop-color="#592CB8"/>
<stop offset="1" stop-color="#2C66B8"/>
</linearGradient>
</defs>
</svg>
