<svg width="1440" height="15" viewBox="0 0 1440 15" fill="none" xmlns="http://www.w3.org/2000/svg">
<path d="M1439.11 13.7178C1367.49 12.9577 1307.77 4.48873 1234.11 6.197C1176.71 7.53431 1124.03 12.556 1066.55 13.772C1009.31 14.9827 948.355 11.7 892.316 9.89585C838.644 8.16948 784.393 6.65484 729.733 7.44564C678.6 8.18577 626.667 9.48326 575.534 8.04281C545.646 7.19953 519.885 5.01714 491.685 3.22381C464.005 1.46486 434.726 0.788069 405.527 0.78264C340.574 0.768164 280.278 4.64074 216.663 6.1029C144.715 7.75689 70.7688 6.50283 0.189794 9.83433" stroke="url(#paint0_linear_0_5311)" stroke-width="0.3" stroke-miterlimit="10"/>
<defs>
<linearGradient id="paint0_linear_0_5311" x1="-1.0346e+06" y1="-6652.86" x2="-1.0346e+06" y2="-6486.02" gradientUnits="userSpaceOnUse">
<stop stop-color="#592CB8"/>
<stop offset="1" stop-color="#2C66B8"/>
</linearGradient>
</defs>
</svg>
