<svg width="1440" height="16" viewBox="0 0 1440 16" fill="none" xmlns="http://www.w3.org/2000/svg">
<path d="M1439.17 12.5149C1369.54 11.8761 1310.63 3.66407 1239.14 5.68722C1181.82 7.31587 1130.72 12.942 1073.58 14.6484C1015.83 16.373 953.002 12.951 896.602 10.8844C842.082 8.89385 786.852 6.66984 731.042 6.39115C681.498 6.14324 633.223 8.88299 583.788 8.56269C553.95 8.36906 529.078 6.60288 501.727 4.64126C473.318 2.60363 443.32 1.43643 412.981 0.884501C348.408 -0.289938 284.364 1.44186 220.56 3.07594C146.914 4.96156 72.6073 6.41287 0.179591 9.56522" stroke="url(#paint0_linear_0_5307)" stroke-width="0.3" stroke-miterlimit="10"/>
<defs>
<linearGradient id="paint0_linear_0_5307" x1="-1.03465e+06" y1="-7340.42" x2="-1.03465e+06" y2="-7156.36" gradientUnits="userSpaceOnUse">
<stop stop-color="#592CB8"/>
<stop offset="1" stop-color="#2C66B8"/>
</linearGradient>
</defs>
</svg>
