<svg width="1440" height="25" viewBox="0 0 1440 25" fill="none" xmlns="http://www.w3.org/2000/svg">
<path d="M1439.39 15.6238C1374.32 15.2329 1316.48 7.76281 1250.29 10.5569C1192.58 12.9781 1145.64 20.2564 1088.73 23.0613C1029.6 25.9748 960.346 22.1402 902.768 19.4421C845.639 16.7638 790.709 13.0125 734.39 9.88911C684.276 7.11135 652.179 12.7845 607.791 15.7052C580.201 17.5148 556.778 16.9285 530.747 14.6194C497.621 11.6717 463.383 9.15307 428.291 7.08239C368.914 3.60251 294.927 -0.134343 232.162 1.55041C151.451 3.72194 80.8016 12.4461 0.429655 14.9868" stroke="url(#paint0_linear_0_5296)" stroke-width="0.3" stroke-miterlimit="10"/>
<defs>
<linearGradient id="paint0_linear_0_5296" x1="-1.03463e+06" y1="-11533.1" x2="-1.03463e+06" y2="-11243.9" gradientUnits="userSpaceOnUse">
<stop stop-color="#592CB8"/>
<stop offset="1" stop-color="#2C66B8"/>
</linearGradient>
</defs>
</svg>
