<svg width="1440" height="22" viewBox="0 0 1440 22" fill="none" xmlns="http://www.w3.org/2000/svg">
<path d="M1439.33 14.2612C1373.05 13.8324 1315.09 6.14511 1247.4 8.81791C1189.79 11.0944 1141.72 17.989 1084.62 20.5134C1025.66 23.1211 957.788 19.2847 900.42 16.7133C844.52 14.2015 789.72 10.7669 733.63 8.43789C684.506 6.39665 648.512 11.3333 603.054 13.4614C574.875 14.7842 550.912 14.0043 524.951 11.7585C492.543 8.96353 458.82 6.69913 424.184 4.99239C363.957 2.02462 292.209 -0.454546 229.864 1.2664C151.001 3.43793 78.4732 10.3 0.369596 13.1139" stroke="url(#paint0_linear_0_5299)" stroke-width="0.3" stroke-miterlimit="10"/>
<defs>
<linearGradient id="paint0_linear_0_5299" x1="-1.03463e+06" y1="-10385.1" x2="-1.03463e+06" y2="-10124.7" gradientUnits="userSpaceOnUse">
<stop stop-color="#592CB8"/>
<stop offset="1" stop-color="#2C66B8"/>
</linearGradient>
</defs>
</svg>
