<svg width="1440" height="16" viewBox="0 0 1440 16" fill="none" xmlns="http://www.w3.org/2000/svg">
<path d="M1439.19 12.6117C1369.47 11.9928 1310.48 3.79527 1238.93 6.00842C1181.37 7.79451 1130.37 13.6486 1072.79 15.3587C1014.42 17.0905 950.304 13.5237 893.405 11.3775C840.043 9.35983 786.002 7.03447 731.392 6.52597C683.196 6.07719 637.34 8.97619 589.494 9.09743C559.965 9.17163 534.824 7.72756 507.923 5.67726C477.305 3.34467 444.799 1.9386 411.852 1.24009C349.088 -0.089975 285.444 1.04284 223.199 2.66969C148.513 4.62226 73.7166 6.76484 0.229704 9.90814" stroke="url(#paint0_linear_0_5306)" stroke-width="0.3" stroke-miterlimit="10"/>
<defs>
<linearGradient id="paint0_linear_0_5306" x1="-1.03463e+06" y1="-7613.42" x2="-1.03463e+06" y2="-7422.51" gradientUnits="userSpaceOnUse">
<stop stop-color="#592CB8"/>
<stop offset="1" stop-color="#2C66B8"/>
</linearGradient>
</defs>
</svg>
