<svg width="1440" height="24" viewBox="0 0 1440 24" fill="none" xmlns="http://www.w3.org/2000/svg">
<path d="M1439.37 14.8689C1373.91 14.4671 1316.08 6.92468 1249.4 9.68072C1191.73 12.0658 1144.42 19.221 1087.45 21.939C1028.37 24.7566 959.547 20.9094 902.048 18.2456C845.319 15.6163 790.439 11.959 734.17 9.09983C684.396 6.56638 651.07 12.0079 606.332 14.6771C578.552 16.3329 554.949 15.6832 528.978 13.4103C496.084 10.5073 462.008 8.06563 427.051 6.10673C367.445 2.78609 294.057 -0.565311 231.473 1.13935C151.361 3.31088 80.0421 11.436 0.429555 14.0817" stroke="url(#paint0_linear_0_5297)" stroke-width="0.3" stroke-miterlimit="10"/>
<defs>
<linearGradient id="paint0_linear_0_5297" x1="-1.03461e+06" y1="-11169" x2="-1.03461e+06" y2="-10889" gradientUnits="userSpaceOnUse">
<stop stop-color="#592CB8"/>
<stop offset="1" stop-color="#2C66B8"/>
</linearGradient>
</defs>
</svg>
