<svg width="1440" height="25" viewBox="0 0 1440 25" fill="none" xmlns="http://www.w3.org/2000/svg">
<path d="M1439.94 11.1049C1382.39 11.1375 1321.14 10.4661 1264.29 12.1291C1179.19 14.621 1098.25 20.4805 1013.77 23.4591C981.601 24.5919 951.113 25.247 919.606 23.2601C893.934 21.6404 871.351 18.7975 849.566 15.9239C810.594 10.7864 769.454 4.19758 718.901 3.68184C656.746 3.04667 594.131 11.9264 540.43 16.6152C512.27 19.0744 479.863 21.9227 447.766 21.3201C418.657 20.7773 391.867 17.7244 368.674 14.7096C322.927 8.76686 274.262 -0.639518 212.996 0.270717C138.74 1.37639 75.905 10.2109 0.979094 11.1139" stroke="url(#paint0_linear_0_5267)" stroke-width="0.3" stroke-miterlimit="10"/>
<defs>
<linearGradient id="paint0_linear_0_5267" x1="-1.03463e+06" y1="-12214.6" x2="-1.03463e+06" y2="-11908.3" gradientUnits="userSpaceOnUse">
<stop stop-color="#592CB8"/>
<stop offset="1" stop-color="#2C66B8"/>
</linearGradient>
</defs>
</svg>
