<svg width="1440" height="16" viewBox="0 0 1440 16" fill="none" xmlns="http://www.w3.org/2000/svg">
<path d="M1439 15.7378C1365.19 14.8619 1304.57 6.08712 1228.54 7.47872C1171.02 8.52648 1116.61 12.8424 1058.78 13.5102C1002.04 14.1652 943.458 10.9079 887.639 9.38605C834.327 7.93836 781.396 7.26337 728.294 9.28471C674.193 11.3422 619.612 10.9134 566.411 8.19894C536.752 6.68972 509.812 4.00245 480.633 2.35751C453.762 0.842861 425.153 0.756 397.413 1.33689C367.145 1.97206 337.636 3.42699 308.577 5.04117C277.22 6.7802 244.953 9.4331 212.287 10.1352C141.887 11.6499 69.11 7.07336 0.089861 10.8265" stroke="url(#paint0_linear_0_5316)" stroke-width="0.3" stroke-miterlimit="10"/>
<defs>
<linearGradient id="paint0_linear_0_5316" x1="-1.03459e+06" y1="-7396.82" x2="-1.03459e+06" y2="-7211.33" gradientUnits="userSpaceOnUse">
<stop stop-color="#592CB8"/>
<stop offset="1" stop-color="#2C66B8"/>
</linearGradient>
</defs>
</svg>
