<svg width="1440" height="31" viewBox="0 0 1440 31" fill="none" xmlns="http://www.w3.org/2000/svg">
<path d="M1439.81 14.2489C1383.6 14.305 1324.75 11.947 1269.35 14.2489C1190.02 17.5568 1118.65 25.3255 1040.4 29.2813C1008.15 30.91 979.742 31.3153 947.875 29.2252C919.536 27.3631 894.234 24.2054 870.191 20.977C827.442 15.2405 782.894 7.32349 729.133 5.28767C665.559 2.8845 603.134 13.9412 551.791 19.2217C523.402 22.137 490.306 25.0758 456.94 23.5738C425.962 22.1804 398.672 18.8019 373.55 15.3636C327.373 9.04805 276.11 -0.693102 213.056 0.32752C136.351 1.56711 78.703 13.402 0.849211 14.2615" stroke="url(#paint0_linear_0_5276)" stroke-width="0.3" stroke-miterlimit="10"/>
<defs>
<linearGradient id="paint0_linear_0_5276" x1="-1.03463e+06" y1="-15263" x2="-1.03463e+06" y2="-14880.3" gradientUnits="userSpaceOnUse">
<stop stop-color="#592CB8"/>
<stop offset="1" stop-color="#2C66B8"/>
</linearGradient>
</defs>
</svg>
