<svg width="1440" height="32" viewBox="0 0 1440 32" fill="none" xmlns="http://www.w3.org/2000/svg">
<path d="M1439.88 14.1432C1385.3 14.2554 1326.25 13.2873 1272.62 15.2037C1185.26 18.3253 1104.52 25.8134 1018.09 29.5811C986.118 30.9763 955.76 31.7019 924.752 29.2825C898.301 27.2213 876.407 23.6021 855.782 20.0734C819.378 13.8374 780.606 5.29243 727.415 4.21571C693.289 3.52443 659.684 6.84869 630.924 9.76398C598.448 13.0557 567.6 16.845 535.133 20.1403C505.705 23.128 470.76 26.6133 435.785 25.7103C405.697 24.934 379.995 21.2351 358.171 17.6629C315.812 10.7321 271.324 -0.407854 207.28 0.616387C132.574 1.81254 76.8144 13.3217 0.949201 14.1432" stroke="url(#paint0_linear_0_5272)" stroke-width="0.3" stroke-miterlimit="10"/>
<defs>
<linearGradient id="paint0_linear_0_5272" x1="-1.0346e+06" y1="-15221.9" x2="-1.0346e+06" y2="-14840.2" gradientUnits="userSpaceOnUse">
<stop stop-color="#592CB8"/>
<stop offset="1" stop-color="#2C66B8"/>
</linearGradient>
</defs>
</svg>
