<svg width="1440" height="17" viewBox="0 0 1440 17" fill="none" xmlns="http://www.w3.org/2000/svg">
<path d="M1439 16.5259C1364.26 15.6211 1303.41 6.62005 1226.43 7.78725C1165.61 8.70835 1106.81 12.8686 1045.43 12.7836C992.963 12.7112 940.311 9.58963 888.478 8.2469C833.408 6.82092 780.696 6.86073 727.364 9.91355C668.227 13.2903 612.817 11.5151 555.818 7.49953C530.267 5.70077 505.924 3.24693 480.183 1.56218C452.943 -0.220285 423.034 -0.0465635 395.005 0.943295C363.198 2.06526 332.75 4.2006 302.751 6.37214C272.513 8.56901 240.366 11.6616 207.76 12.3855C138.81 13.9074 67.1013 6.39385 0.049765 10.9251" stroke="url(#paint0_linear_0_5321)" stroke-width="0.3" stroke-miterlimit="10"/>
<defs>
<linearGradient id="paint0_linear_0_5321" x1="-1.03462e+06" y1="-8194.16" x2="-1.03462e+06" y2="-7988.7" gradientUnits="userSpaceOnUse">
<stop stop-color="#592CB8"/>
<stop offset="1" stop-color="#2C66B8"/>
</linearGradient>
</defs>
</svg>
