<svg width="1440" height="20" viewBox="0 0 1440 20" fill="none" xmlns="http://www.w3.org/2000/svg">
<path d="M1439.29 13.5392C1372.05 13.0615 1313.88 5.22582 1245.14 7.79005C1187.59 9.93806 1138.71 16.5522 1081.47 18.8613C1022.64 21.2355 955.8 17.448 898.601 14.976C843.521 12.5964 788.83 9.43137 733.071 7.6308C684.486 6.06187 645.624 10.4502 599.477 12.0191C570.888 12.9909 546.575 12.0426 520.484 9.84758C488.573 7.1832 455.231 5.12141 420.986 3.69489C360.03 1.13248 290.36 -0.373121 228.125 1.34239C150.491 3.47955 76.9843 9.03144 0.329679 11.9684" stroke="url(#paint0_linear_0_5301)" stroke-width="0.3" stroke-miterlimit="10"/>
<defs>
<linearGradient id="paint0_linear_0_5301" x1="-1.03463e+06" y1="-9541.55" x2="-1.03463e+06" y2="-9302.29" gradientUnits="userSpaceOnUse">
<stop stop-color="#592CB8"/>
<stop offset="1" stop-color="#2C66B8"/>
</linearGradient>
</defs>
</svg>
