<svg width="1440" height="26" viewBox="0 0 1440 26" fill="none" xmlns="http://www.w3.org/2000/svg">
<path d="M1439.46 15.7222C1375.37 15.3421 1317.55 8.06931 1252.43 10.9032C1194.59 13.4185 1148.63 21.0243 1091.87 24.0391C1032.64 27.1861 962.345 23.4818 904.477 20.7167C846.209 17.9299 791.049 13.9759 734.939 10.0798C683.736 6.52389 654.937 12.8141 611.438 16.4261C584.298 18.6809 561.405 18.2013 535.034 15.8579C501.254 12.8259 466.592 10.1281 431.199 7.77615C372.141 3.89633 297.495 -0.729037 233.891 0.847137C151.491 2.87933 83.09 13.3679 0.499601 15.4797" stroke="url(#paint0_linear_0_5293)" stroke-width="0.3" stroke-miterlimit="10"/>
<defs>
<linearGradient id="paint0_linear_0_5293" x1="-1.03463e+06" y1="-12408.1" x2="-1.03463e+06" y2="-12097" gradientUnits="userSpaceOnUse">
<stop stop-color="#592CB8"/>
<stop offset="1" stop-color="#2C66B8"/>
</linearGradient>
</defs>
</svg>
