<svg width="1440" height="18" viewBox="0 0 1440 18" fill="none" xmlns="http://www.w3.org/2000/svg">
<path d="M1439 16.8735C1363.9 15.9959 1303.1 6.88085 1225.69 8.06795C1164.84 9.00172 1105.64 12.9774 1044.21 12.7983C991.794 12.6463 939.661 9.33468 887.879 7.97928C832.738 6.53159 779.957 6.76141 727.225 10.2087C666.908 14.1501 612.228 12.0002 554.27 7.61012C528.898 5.69012 504.426 3.18924 478.594 1.48277C451.434 -0.310557 421.915 -0.0843556 394.065 1.01046C329.722 3.54392 272.073 11.4755 207.11 13.0752C138.41 14.7671 66.4318 6.14615 0.0397625 11.1353" stroke="url(#paint0_linear_0_5323)" stroke-width="0.3" stroke-miterlimit="10"/>
<defs>
<linearGradient id="paint0_linear_0_5323" x1="-1.03463e+06" y1="-8391.24" x2="-1.03463e+06" y2="-8180.84" gradientUnits="userSpaceOnUse">
<stop stop-color="#592CB8"/>
<stop offset="1" stop-color="#2C66B8"/>
</linearGradient>
</defs>
</svg>
