<svg width="1440" height="27" viewBox="0 0 1440 27" fill="none" xmlns="http://www.w3.org/2000/svg">
<path d="M1439.5 15.9916C1375.9 15.5971 1317.88 8.4383 1253.32 11.2577C1195.37 13.7911 1149.96 21.5725 1093.29 24.6814C1034.04 27.9387 963.154 24.4045 905.156 21.6322C846.289 18.8182 790.839 14.7919 735.159 10.4035C683.197 6.30658 656.296 12.9135 613.107 16.9182C586.127 19.4263 563.583 18.963 536.842 16.6105C502.607 13.5993 467.892 10.7781 432.308 8.3243C373.051 4.23638 299.064 -0.687581 234.65 0.745633C151.301 2.59868 84.4989 14.1893 0.539518 15.9066" stroke="url(#paint0_linear_0_5291)" stroke-width="0.3" stroke-miterlimit="10"/>
<defs>
<linearGradient id="paint0_linear_0_5291" x1="-1.03463e+06" y1="-12800.8" x2="-1.03463e+06" y2="-12479.8" gradientUnits="userSpaceOnUse">
<stop stop-color="#592CB8"/>
<stop offset="1" stop-color="#2C66B8"/>
</linearGradient>
</defs>
</svg>
