<svg width="1439" height="22" viewBox="0 0 1439 22" fill="none" xmlns="http://www.w3.org/2000/svg">
<path d="M1438.95 9.77761C1379.99 9.80475 1317.82 9.13338 1259.48 10.6824C1177.07 12.8648 1098.25 18.1652 1016.31 20.7927C951.912 22.8593 904.307 20.4 849.306 14.3288C807.607 9.72513 764.578 4.09904 713.904 3.71721C653.948 3.26662 595.989 10.7838 543.148 15.0382C515.468 17.2676 484.94 19.6183 454.022 19.1007C425.043 18.6158 397.892 15.9665 373.66 13.2195C325.345 7.73998 276.09 -0.394229 215.154 0.331426C140.628 1.22176 75.0756 9.08271 0.0197575 9.77761" stroke="url(#paint0_linear_0_5266)" stroke-width="0.3" stroke-miterlimit="10"/>
<defs>
<linearGradient id="paint0_linear_0_5266" x1="-1.03461e+06" y1="-10657.6" x2="-1.03461e+06" y2="-10390.3" gradientUnits="userSpaceOnUse">
<stop stop-color="#592CB8"/>
<stop offset="1" stop-color="#2C66B8"/>
</linearGradient>
</defs>
</svg>
