<svg width="1440" height="32" viewBox="0 0 1440 32" fill="none" xmlns="http://www.w3.org/2000/svg">
<path d="M1439.83 14.2832C1384.11 14.3846 1325.27 12.4428 1270.44 14.6669C1188.92 17.973 1115 25.7055 1034.51 29.6487C1002.16 31.2375 973.467 31.7315 941.69 29.5129C913.86 27.5694 889.408 24.2651 866.274 20.9317C825.304 15.027 782.045 6.83666 728.554 5.02524C664 2.83742 598.768 14.2235 546.455 19.5908C517.336 22.5803 484.31 25.5752 450.005 24.3212C419.507 23.2046 392.247 19.5401 368.474 16.1073C323.586 9.62708 274.222 -0.524845 211.168 0.484919C135.112 1.70098 78.0736 13.4472 0.869352 14.2832" stroke="url(#paint0_linear_0_5275)" stroke-width="0.3" stroke-miterlimit="10"/>
<defs>
<linearGradient id="paint0_linear_0_5275" x1="-1.03463e+06" y1="-15362.8" x2="-1.03463e+06" y2="-14977.6" gradientUnits="userSpaceOnUse">
<stop stop-color="#592CB8"/>
<stop offset="1" stop-color="#2C66B8"/>
</linearGradient>
</defs>
</svg>
