<svg width="1440" height="32" viewBox="0 0 1440 32" fill="none" xmlns="http://www.w3.org/2000/svg">
<path d="M1439.84 14.2767C1384.57 14.4051 1325.71 12.8398 1271.37 14.9715C1187.75 18.2488 1111.41 25.9125 1028.79 29.8339C996.41 31.3703 967.321 31.9475 935.704 29.6276C908.364 27.6225 884.741 24.1988 862.517 20.7605C823.325 14.7182 781.346 6.32702 728.054 4.74361C694.638 3.75194 661.882 6.86628 633.662 9.749C602.435 12.9412 573.006 16.6744 541.799 19.8702C512.57 22.8651 478.624 26.0826 444.019 24.9371C413.761 23.9327 387.06 20.2321 364.077 16.7468C320.299 10.1109 272.713 -0.417406 209.499 0.586929C134.003 1.7867 77.5039 13.4479 0.849269 14.2712" stroke="url(#paint0_linear_0_5274)" stroke-width="0.3" stroke-miterlimit="10"/>
<defs>
<linearGradient id="paint0_linear_0_5274" x1="-1.03465e+06" y1="-15394.6" x2="-1.03465e+06" y2="-15008.6" gradientUnits="userSpaceOnUse">
<stop stop-color="#592CB8"/>
<stop offset="1" stop-color="#2C66B8"/>
</linearGradient>
</defs>
</svg>
