<svg width="1440" height="31" viewBox="0 0 1440 31" fill="none" xmlns="http://www.w3.org/2000/svg">
<path d="M1439.89 14.0209C1385.54 14.0824 1326.31 13.3151 1272.87 15.1066C1183.93 18.0943 1101.33 25.4612 1013.3 29.1004C981.701 30.4051 950.524 31.1869 919.956 28.7837C893.974 26.737 872.83 23.0798 852.934 19.5203C817.699 13.2156 780.496 4.75565 727.305 3.96666C692.969 3.45816 659.484 6.77337 630.475 9.69047C597.598 12.9984 566.281 16.7842 533.415 20.0939C503.926 23.0653 468.981 26.5778 433.957 25.8177C403.778 25.1627 378.447 21.5163 356.922 17.9043C314.783 10.8305 271.544 -0.52299 206.721 0.532015C132.194 1.74084 76.6146 13.1848 0.929289 14.0209" stroke="url(#paint0_linear_0_5271)" stroke-width="0.3" stroke-miterlimit="10"/>
<defs>
<linearGradient id="paint0_linear_0_5271" x1="-1.03463e+06" y1="-15000.1" x2="-1.03463e+06" y2="-14624" gradientUnits="userSpaceOnUse">
<stop stop-color="#592CB8"/>
<stop offset="1" stop-color="#2C66B8"/>
</linearGradient>
</defs>
</svg>
