<svg width="1440" height="22" viewBox="0 0 1440 22" fill="none" xmlns="http://www.w3.org/2000/svg">
<path d="M1439.35 14.0831C1373.48 13.6669 1315.59 6.05204 1248.49 8.77008C1190.79 11.0991 1143.11 18.1312 1086.08 20.7552C1027.05 23.4696 958.707 19.6241 901.209 17.0002C844.9 14.4269 790.059 10.8747 733.85 8.28149C684.416 5.99956 649.791 11.1877 604.683 13.5927C576.703 15.0838 552.931 14.3708 526.979 12.1088C494.325 9.25677 460.419 6.90041 425.612 5.06399C365.776 1.91346 293.128 -1.02536 230.683 0.699206C151.201 2.88341 79.2426 10.3752 0.389494 13.1113" stroke="url(#paint0_linear_0_5298)" stroke-width="0.3" stroke-miterlimit="10"/>
<defs>
<linearGradient id="paint0_linear_0_5298" x1="-1.03463e+06" y1="-10793.1" x2="-1.03463e+06" y2="-10522.5" gradientUnits="userSpaceOnUse">
<stop stop-color="#592CB8"/>
<stop offset="1" stop-color="#2C66B8"/>
</linearGradient>
</defs>
</svg>
