<svg width="1440" height="30" viewBox="0 0 1440 30" fill="none" xmlns="http://www.w3.org/2000/svg">
<path d="M1439.92 13.6413C1384.59 13.6757 1324.8 13.0061 1270.33 14.7778C1181.54 17.6641 1098.1 24.461 1010.04 27.9228C977.914 29.1895 947.286 29.9984 916.258 27.5826C890.857 25.6047 869.832 22.1755 849.856 18.8023C814.702 12.8686 776.769 4.83755 725.346 4.14447C691.99 3.69931 658.394 7.02176 629.915 9.76875C597.768 12.8722 566.96 16.4046 534.814 19.5117C505.835 22.3148 470.86 25.82 436.794 25.1052C407.166 24.4827 381.244 20.9087 359.49 17.4831C317.191 10.8256 270.904 -0.395847 208.06 0.735161C133.933 2.06885 76.025 12.5628 0.959196 13.6341" stroke="url(#paint0_linear_0_5269)" stroke-width="0.3" stroke-miterlimit="10"/>
<defs>
<linearGradient id="paint0_linear_0_5269" x1="-1.03463e+06" y1="-14301.4" x2="-1.03463e+06" y2="-13942.8" gradientUnits="userSpaceOnUse">
<stop stop-color="#592CB8"/>
<stop offset="1" stop-color="#2C66B8"/>
</linearGradient>
</defs>
</svg>
