<svg width="1440" height="27" viewBox="0 0 1440 27" fill="none" xmlns="http://www.w3.org/2000/svg">
<path d="M1439.48 16.3687C1375.66 15.9851 1317.73 8.76832 1252.94 11.6004C1195.05 14.1302 1149.37 21.8229 1092.66 24.8992C1033.41 28.1022 962.755 24.4794 904.866 21.7053C846.279 18.9003 790.949 14.9047 735.069 10.7589C683.476 6.93518 655.656 13.3955 612.358 17.2138C585.307 19.5971 562.594 19.1338 536.053 16.7831C502.007 13.7665 467.362 10.9779 431.838 8.58193C372.731 4.59174 298.294 -0.210978 234.321 1.29643C151.38 3.249 83.8092 14.2949 0.489405 16.2239" stroke="url(#paint0_linear_0_5292)" stroke-width="0.3" stroke-miterlimit="10"/>
<defs>
<linearGradient id="paint0_linear_0_5292" x1="-1.03465e+06" y1="-12622.3" x2="-1.03465e+06" y2="-12305.8" gradientUnits="userSpaceOnUse">
<stop stop-color="#592CB8"/>
<stop offset="1" stop-color="#2C66B8"/>
</linearGradient>
</defs>
</svg>
