<svg width="1440" height="20" viewBox="0 0 1440 20" fill="none" xmlns="http://www.w3.org/2000/svg">
<path d="M1439.27 13.6254C1371.56 13.1223 1313.24 5.21252 1243.97 7.71522C1186.41 9.79446 1137.12 16.262 1079.81 18.4571C1021.06 20.7064 954.75 16.9569 897.592 14.5429C842.901 12.232 788.291 9.219 732.711 7.68083C684.336 6.34353 643.995 10.4459 597.518 11.7253C568.719 12.5197 544.237 11.481 518.046 9.31853C486.383 6.72307 453.237 4.76773 419.207 3.48796C357.841 1.14813 289.361 0.156459 227.146 1.85931C150.201 3.96932 76.2548 8.85165 0.30966 11.8375" stroke="url(#paint0_linear_0_5302)" stroke-width="0.3" stroke-miterlimit="10"/>
<defs>
<linearGradient id="paint0_linear_0_5302" x1="-1.03463e+06" y1="-9110.07" x2="-1.03463e+06" y2="-8881.62" gradientUnits="userSpaceOnUse">
<stop stop-color="#592CB8"/>
<stop offset="1" stop-color="#2C66B8"/>
</linearGradient>
</defs>
</svg>
