<svg width="1440" height="15" viewBox="0 0 1440 15" fill="none" xmlns="http://www.w3.org/2000/svg">
<path d="M1439.16 12.3778C1369.05 11.7082 1309.9 3.42742 1237.89 5.37275C1180.55 6.92178 1129.04 12.3995 1071.82 13.9811C1014.18 15.5663 951.853 12.1932 895.533 10.1936C841.272 8.26452 786.252 6.21242 730.732 6.21242C680.898 6.21242 631.554 8.58844 581.71 7.98222C551.831 7.62029 526.75 5.75277 499.189 3.83277C470.97 1.86753 441.171 0.823386 411.093 0.410794C346.31 -0.477726 283.375 1.80782 219.581 3.39666C146.414 5.21894 72.1179 5.99526 0.199797 9.18742" stroke="url(#paint0_linear_0_5308)" stroke-width="0.3" stroke-miterlimit="10"/>
<defs>
<linearGradient id="paint0_linear_0_5308" x1="-1.03463e+06" y1="-7119.9" x2="-1.03463e+06" y2="-6941.37" gradientUnits="userSpaceOnUse">
<stop stop-color="#592CB8"/>
<stop offset="1" stop-color="#2C66B8"/>
</linearGradient>
</defs>
</svg>
