<svg width="1440" height="28" viewBox="0 0 1440 28" fill="none" xmlns="http://www.w3.org/2000/svg">
<path d="M1439.57 16.717C1376.62 16.2375 1317.88 9.25418 1254.06 11.9921C1195.82 14.4912 1150.55 22.43 1093.77 25.6058C1034.46 28.9211 963.524 25.7253 905.366 22.9204C846.289 20.0702 790.209 15.9877 735.299 11.1579C710.627 8.98635 692.02 8.46157 667.208 10.9606C648.222 12.8734 632.763 15.7634 613.807 17.6942C586.736 20.4521 564.932 19.9309 537.442 17.6562C502.747 14.7862 467.912 11.9577 432.458 9.40618C372.321 5.0794 300.933 0.0703884 235 1.26292C150.751 2.78481 85.9778 15.6331 0.609465 16.717" stroke="url(#paint0_linear_0_5288)" stroke-width="0.3" stroke-miterlimit="10"/>
<defs>
<linearGradient id="paint0_linear_0_5288" x1="-1.03463e+06" y1="-13020.8" x2="-1.03463e+06" y2="-12694.3" gradientUnits="userSpaceOnUse">
<stop stop-color="#592CB8"/>
<stop offset="1" stop-color="#2C66B8"/>
</linearGradient>
</defs>
</svg>
