<svg width="1440" height="26" viewBox="0 0 1440 26" fill="none" xmlns="http://www.w3.org/2000/svg">
<path d="M1439.43 16.0503C1375.05 15.6702 1317.25 8.33406 1251.81 11.1643C1194.02 13.6598 1147.75 21.1642 1090.92 24.1175C1031.71 27.1939 961.715 23.4317 903.957 20.6792C845.999 17.9214 790.989 14.0217 734.749 10.3789C683.926 7.08543 654.087 13.1893 610.329 16.5823C583.059 18.6977 559.995 18.191 533.774 15.8584C500.198 12.8466 465.662 10.1993 430.349 7.93052C371.262 4.17195 296.625 -0.201885 233.361 1.41591C151.49 3.50963 82.3102 13.4245 0.439357 15.701" stroke="url(#paint0_linear_0_5294)" stroke-width="0.3" stroke-miterlimit="10"/>
<defs>
<linearGradient id="paint0_linear_0_5294" x1="-1.03465e+06" y1="-12149.6" x2="-1.03465e+06" y2="-11844.9" gradientUnits="userSpaceOnUse">
<stop stop-color="#592CB8"/>
<stop offset="1" stop-color="#2C66B8"/>
</linearGradient>
</defs>
</svg>
