<svg width="1440" height="17" viewBox="0 0 1440 17" fill="none" xmlns="http://www.w3.org/2000/svg">
<path d="M1439 16.1904C1364.83 15.3001 1304.1 6.46919 1227.63 7.81373C1170.06 8.82711 1115.36 13.0236 1057.46 13.5918C1000.81 14.1546 942.649 10.8774 886.879 9.39352C833.568 7.9784 780.846 7.46266 728.054 9.71201C673.363 12.0428 618.423 11.3027 564.832 8.35299C535.303 6.72434 508.133 3.95563 478.804 2.33422C452.043 0.855764 423.564 0.866622 396.094 1.54704C365.885 2.2926 336.547 3.8742 307.658 5.59152C276.53 7.44095 244.213 10.2314 211.557 10.9389C141.378 12.4572 68.83 7.23827 0.0796868 11.1199" stroke="url(#paint0_linear_0_5317)" stroke-width="0.3" stroke-miterlimit="10"/>
<defs>
<linearGradient id="paint0_linear_0_5317" x1="-1.0346e+06" y1="-7573.97" x2="-1.0346e+06" y2="-7384.03" gradientUnits="userSpaceOnUse">
<stop stop-color="#592CB8"/>
<stop offset="1" stop-color="#2C66B8"/>
</linearGradient>
</defs>
</svg>
