<svg width="1440" height="28" viewBox="0 0 1440 28" fill="none" xmlns="http://www.w3.org/2000/svg">
<path d="M1439.63 16.1405C1378.39 15.5976 1318.63 9.30736 1256.93 12.0218C1195.98 14.7018 1146.53 22.5175 1087.05 25.916C1027.17 29.3271 959.147 25.7567 901.729 22.2732C844.77 18.8151 790.429 14.1969 734.849 10.0945C708.628 8.16006 689.412 8.08044 664.06 10.5759C643.455 12.6045 626.028 15.5505 605.453 17.5936C578.002 20.3225 556.138 20.2465 527.389 18.2179C492.844 15.7767 459.188 12.97 425.293 10.2429C366.465 5.52346 298.384 -0.33245 232.232 0.88361C148.972 2.41454 85.0984 15.0456 0.699323 16.1405" stroke="url(#paint0_linear_0_5285)" stroke-width="0.3" stroke-miterlimit="10"/>
<defs>
<linearGradient id="paint0_linear_0_5285" x1="-1.03461e+06" y1="-13342.5" x2="-1.03461e+06" y2="-13007.9" gradientUnits="userSpaceOnUse">
<stop stop-color="#592CB8"/>
<stop offset="1" stop-color="#2C66B8"/>
</linearGradient>
</defs>
</svg>
