<svg width="1440" height="17" viewBox="0 0 1440 17" fill="none" xmlns="http://www.w3.org/2000/svg">
<path d="M1439 16.269C1363.89 15.3642 1302.84 6.36322 1225.41 7.61728C1167.73 8.55104 1112.24 12.4037 1054.17 12.7475C997.719 13.0751 940.69 9.65129 885.021 8.25427C831.649 6.91515 779.367 6.80658 727.504 9.70196C671.035 12.8561 615.675 11.3071 560.925 7.71138C531.736 5.79319 504.026 2.79828 474.317 1.2203C447.836 -0.187579 419.767 0.0621468 392.946 0.98505C362.888 2.02196 333.989 3.92929 305.499 5.9072C274.891 8.03349 242.545 11.1243 209.758 11.8789C140.099 13.4985 67.9907 6.41389 0.0397625 10.7787" stroke="url(#paint0_linear_0_5320)" stroke-width="0.3" stroke-miterlimit="10"/>
<defs>
<linearGradient id="paint0_linear_0_5320" x1="-1.03463e+06" y1="-8053.99" x2="-1.03463e+06" y2="-7852.04" gradientUnits="userSpaceOnUse">
<stop stop-color="#592CB8"/>
<stop offset="1" stop-color="#2C66B8"/>
</linearGradient>
</defs>
</svg>
