<svg width="1440" height="15" viewBox="0 0 1440 15" fill="none" xmlns="http://www.w3.org/2000/svg">
<path d="M1439.1 14.4106C1367 13.6253 1307.1 5.08571 1232.91 6.72884C1175.48 7.99557 1122.42 12.8815 1064.87 13.9673C1007.69 15.0531 947.346 11.7958 891.296 10.0549C837.735 8.3973 783.754 7.05276 729.413 8.10052C677.73 9.09581 625.128 10.0332 573.526 8.32491C543.647 7.33868 517.666 5.0459 489.256 3.29419C461.706 1.59677 432.677 1.04122 403.748 1.16427C338.895 1.43753 279.228 5.80593 215.704 7.23372C144.166 8.84066 70.4089 6.91161 0.159657 10.3101" stroke="url(#paint0_linear_0_5312)" stroke-width="0.3" stroke-miterlimit="10"/>
<defs>
<linearGradient id="paint0_linear_0_5312" x1="-1.03461e+06" y1="-6658.36" x2="-1.03461e+06" y2="-6491.38" gradientUnits="userSpaceOnUse">
<stop stop-color="#592CB8"/>
<stop offset="1" stop-color="#2C66B8"/>
</linearGradient>
</defs>
</svg>
