<svg width="1440" height="16" viewBox="0 0 1440 16" fill="none" xmlns="http://www.w3.org/2000/svg">
<path d="M1439.06 15.2202C1365.65 14.3625 1305.16 5.64555 1229.58 7.09324C1172.04 8.19349 1117.95 12.6433 1060.18 13.4106C1003.32 14.1652 944.358 10.9188 888.478 9.35164C835.137 7.85509 781.955 7.02267 728.544 8.80875C675.132 10.5948 620.872 10.4899 568.05 8.01795C538.331 6.62636 511.621 4.0368 482.611 2.36834C455.631 0.813882 426.872 0.618444 398.842 1.10161C334.648 2.18738 276.231 7.90395 213.066 9.26478C142.427 10.7867 69.3999 6.86161 0.0999432 10.5062" stroke="url(#paint0_linear_0_5315)" stroke-width="0.3" stroke-miterlimit="10"/>
<defs>
<linearGradient id="paint0_linear_0_5315" x1="-1.03463e+06" y1="-7205.58" x2="-1.03463e+06" y2="-7024.89" gradientUnits="userSpaceOnUse">
<stop stop-color="#592CB8"/>
<stop offset="1" stop-color="#2C66B8"/>
</linearGradient>
</defs>
</svg>
