<svg width="1440" height="17" viewBox="0 0 1440 17" fill="none" xmlns="http://www.w3.org/2000/svg">
<path d="M1439 15.9614C1364.18 15.0566 1303.19 6.1117 1226.06 7.38567C1168.39 8.33933 1113.15 12.297 1055.13 12.7041C998.619 13.1022 941.21 9.73817 885.54 8.32124C832.199 6.96584 779.817 6.7324 727.654 9.41967C671.765 12.2988 616.435 10.9958 562.084 7.61006C532.765 5.78054 505.215 2.85259 475.616 1.26375C449.055 -0.16042 420.846 0.0205414 393.835 0.87106C363.737 1.8193 334.708 3.62891 306.099 5.52719C275.351 7.57025 242.974 10.5833 210.278 11.318C140.468 12.8887 68.2705 6.41391 0.049765 10.5941" stroke="url(#paint0_linear_0_5319)" stroke-width="0.3" stroke-miterlimit="10"/>
<defs>
<linearGradient id="paint0_linear_0_5319" x1="-1.03462e+06" y1="-7907.62" x2="-1.03462e+06" y2="-7709.34" gradientUnits="userSpaceOnUse">
<stop stop-color="#592CB8"/>
<stop offset="1" stop-color="#2C66B8"/>
</linearGradient>
</defs>
</svg>
