<svg width="1440" height="21" viewBox="0 0 1440 21" fill="none" xmlns="http://www.w3.org/2000/svg">
<path d="M1439.31 13.4193C1372.55 12.965 1314.48 5.20361 1246.31 7.82574C1188.71 10.0389 1140.22 16.796 1083.08 19.2154C1024.17 21.7073 956.809 17.8926 899.52 15.3646C844.04 12.9162 789.28 9.61183 733.34 7.54706C684.506 5.73744 647.093 10.4081 601.296 12.2521C572.906 13.4012 548.764 12.538 522.762 10.323C490.601 7.59068 457.064 5.42427 422.615 3.85363C362.019 1.08131 291.27 -0.921936 229.005 0.800816C150.761 2.9633 77.7138 9.17028 0.349699 12.0494" stroke="url(#paint0_linear_0_5300)" stroke-width="0.3" stroke-miterlimit="10"/>
<defs>
<linearGradient id="paint0_linear_0_5300" x1="-1.03463e+06" y1="-9974.8" x2="-1.03463e+06" y2="-9724.69" gradientUnits="userSpaceOnUse">
<stop stop-color="#592CB8"/>
<stop offset="1" stop-color="#2C66B8"/>
</linearGradient>
</defs>
</svg>
