<svg width="1440" height="32" viewBox="0 0 1440 32" fill="none" xmlns="http://www.w3.org/2000/svg">
<path d="M1439.86 14.2301C1384.97 14.364 1326.08 13.1262 1272.12 15.1548C1186.54 18.3723 1107.91 25.9582 1023.3 29.8127C991.054 31.2857 961.405 31.9426 930.048 29.5539C903.188 27.5072 880.414 23.9821 859.019 20.4805C821.397 14.3278 780.836 5.81359 727.694 4.47628C693.879 3.62395 660.533 6.87945 632.033 9.78207C600.106 13.0394 569.908 16.8052 538.001 20.0607C508.662 23.0538 474.047 26.4396 439.233 25.4081C409.114 24.5141 382.953 20.799 360.639 17.2648C317.72 10.4788 271.773 -0.382528 208.219 0.627237C133.184 1.81796 77.114 13.4013 0.919057 14.2192" stroke="url(#paint0_linear_0_5273)" stroke-width="0.3" stroke-miterlimit="10"/>
<defs>
<linearGradient id="paint0_linear_0_5273" x1="-1.03461e+06" y1="-15351.1" x2="-1.03461e+06" y2="-14966.2" gradientUnits="userSpaceOnUse">
<stop stop-color="#592CB8"/>
<stop offset="1" stop-color="#2C66B8"/>
</linearGradient>
</defs>
</svg>
