<svg width="1440" height="14" viewBox="0 0 1440 14" fill="none" xmlns="http://www.w3.org/2000/svg">
<path d="M1439.12 12.9792C1367.99 12.2554 1308.47 3.83704 1235.34 5.62855C1177.97 7.03462 1125.67 12.2137 1068.27 13.542C1010.87 14.8702 949.534 11.5659 893.395 9.69837C839.564 7.90686 785.013 6.21487 730.083 6.74509C679.449 7.23368 628.276 8.89129 577.593 7.72409C547.614 7.03462 522.153 4.96081 494.153 3.12586C466.153 1.29091 436.874 0.501918 407.356 0.364387C342.403 0.0585626 281.327 3.41721 217.623 4.91919C145.335 6.62384 71.2084 6.04476 0.189679 9.32378" stroke="url(#paint0_linear_0_5310)" stroke-width="0.3" stroke-miterlimit="10"/>
<defs>
<linearGradient id="paint0_linear_0_5310" x1="-1.03461e+06" y1="-6780.19" x2="-1.03461e+06" y2="-6610.18" gradientUnits="userSpaceOnUse">
<stop stop-color="#592CB8"/>
<stop offset="1" stop-color="#2C66B8"/>
</linearGradient>
</defs>
</svg>
