<svg width="1440" height="27" viewBox="0 0 1440 27" fill="none" xmlns="http://www.w3.org/2000/svg">
<path d="M1439.61 15.708C1377.8 15.1651 1318.22 8.57447 1255.8 11.2979C1196.06 13.9056 1148.3 21.7503 1090.02 25.0619C1030.45 28.4476 961.176 25.0257 903.527 21.8046C845.879 18.5834 790.529 14.2042 735.129 9.8611C709.528 7.85424 690.811 7.57013 665.679 10.0529C645.754 12.0218 629.126 14.928 609.25 16.9114C581.95 19.6366 560.425 19.3471 532.176 17.2516C497.461 14.6765 463.285 11.8752 428.75 9.22412C369.183 4.65303 299.773 -0.877146 233.521 0.342533C149.802 1.88251 85.4982 14.5896 0.689428 15.6917" stroke="url(#paint0_linear_0_5286)" stroke-width="0.3" stroke-miterlimit="10"/>
<defs>
<linearGradient id="paint0_linear_0_5286" x1="-1.0346e+06" y1="-13200.5" x2="-1.0346e+06" y2="-12869.5" gradientUnits="userSpaceOnUse">
<stop stop-color="#592CB8"/>
<stop offset="1" stop-color="#2C66B8"/>
</linearGradient>
</defs>
</svg>
