<svg width="1440" height="27" viewBox="0 0 1440 27" fill="none" xmlns="http://www.w3.org/2000/svg">
<path d="M1439.54 16.1651C1376.27 15.7344 1317.94 8.67514 1253.73 11.4384C1195.69 13.9357 1150.69 21.8672 1094.09 25.025C1034.84 28.3294 963.584 25.0684 905.406 22.3232C846.119 19.5256 790.219 15.4739 735.239 10.6223C710.657 8.45075 691.79 7.99835 667.148 10.4811C648.292 12.3812 632.933 15.2459 614.076 17.1514C587.096 19.8767 564.892 19.37 537.662 17.0301C503.117 14.0624 468.242 11.2122 432.637 8.686C372.791 4.43884 300.473 -0.51407 235.05 0.723705C150.921 2.31255 85.7279 14.9436 0.579435 16.1597" stroke="url(#paint0_linear_0_5289)" stroke-width="0.3" stroke-miterlimit="10"/>
<defs>
<linearGradient id="paint0_linear_0_5289" x1="-1.03463e+06" y1="-12997.8" x2="-1.03463e+06" y2="-12671.9" gradientUnits="userSpaceOnUse">
<stop stop-color="#592CB8"/>
<stop offset="1" stop-color="#2C66B8"/>
</linearGradient>
</defs>
</svg>
