<svg width="1440" height="17" viewBox="0 0 1440 17" fill="none" xmlns="http://www.w3.org/2000/svg">
<path d="M1439 16.7285C1364.05 15.8364 1303.2 6.77564 1226.01 7.94465C1165.17 8.86755 1106.1 12.9301 1044.75 12.7944C992.313 12.6768 939.931 9.46834 888.128 8.1238C833.018 6.69421 780.316 6.83536 727.245 10.0872C667.508 13.7499 612.388 11.7666 554.919 7.55377C529.487 5.68987 505.075 3.21432 479.264 1.52776C452.083 -0.25652 422.305 -0.0466045 394.435 0.999352C362.648 2.19189 332.32 4.41952 302.411 6.64897C272.213 8.90013 240.076 12.0271 207.39 12.7872C138.57 14.376 66.7816 6.29971 0.0397625 11.0499" stroke="url(#paint0_linear_0_5322)" stroke-width="0.3" stroke-miterlimit="10"/>
<defs>
<linearGradient id="paint0_linear_0_5322" x1="-1.03463e+06" y1="-8299.69" x2="-1.03463e+06" y2="-8091.58" gradientUnits="userSpaceOnUse">
<stop stop-color="#592CB8"/>
<stop offset="1" stop-color="#2C66B8"/>
</linearGradient>
</defs>
</svg>
