<svg width="1440" height="18" viewBox="0 0 1440 18" fill="none" xmlns="http://www.w3.org/2000/svg">
<path d="M1439.25 12.6765C1371.05 12.1463 1312.58 4.17134 1242.74 6.59803C1185.18 8.60489 1135.48 14.9259 1078.1 17.0015C1019.43 19.1187 953.661 15.4163 896.573 13.0638C842.252 10.8253 787.741 7.97334 732.401 6.69575C684.196 5.58284 642.386 9.39388 595.61 10.3837C566.631 10.9972 541.959 9.86438 515.668 7.72904C484.251 5.20741 451.305 3.36401 417.509 2.23686C355.753 0.132281 288.482 -0.336409 226.267 1.35377C149.882 3.42759 75.6454 7.63494 0.359744 10.6642" stroke="url(#paint0_linear_0_5303)" stroke-width="0.3" stroke-miterlimit="10"/>
<defs>
<linearGradient id="paint0_linear_0_5303" x1="-1.03458e+06" y1="-8688.53" x2="-1.03458e+06" y2="-8470.67" gradientUnits="userSpaceOnUse">
<stop stop-color="#592CB8"/>
<stop offset="1" stop-color="#2C66B8"/>
</linearGradient>
</defs>
</svg>
