<svg width="1440" height="30" viewBox="0 0 1440 30" fill="none" xmlns="http://www.w3.org/2000/svg">
<path d="M1439.9 13.8493C1385.35 13.8783 1325.93 13.1961 1272.26 14.9532C1182.72 17.8848 1099.05 25.0382 1010.31 28.5941C978.623 29.8608 947.426 30.686 916.838 28.2539C891.226 26.218 870.491 22.6042 850.886 19.0882C816.291 12.8739 779.477 4.52077 726.975 3.8476C692.88 3.40967 659.194 6.7665 630.315 9.63836C597.489 12.8957 566.111 16.609 533.295 19.8699C503.946 22.787 468.821 26.3483 434.057 25.639C404.078 25.0273 378.597 21.3882 357.112 17.816C315.142 10.8399 271.064 -0.665581 206.751 0.45457C132.434 1.74844 76.2749 12.8884 0.899374 13.8457" stroke="url(#paint0_linear_0_5270)" stroke-width="0.3" stroke-miterlimit="10"/>
<defs>
<linearGradient id="paint0_linear_0_5270" x1="-1.03466e+06" y1="-14781.2" x2="-1.03466e+06" y2="-14410.6" gradientUnits="userSpaceOnUse">
<stop stop-color="#592CB8"/>
<stop offset="1" stop-color="#2C66B8"/>
</linearGradient>
</defs>
</svg>
