<svg width="1440" height="27" viewBox="0 0 1440 27" fill="none" xmlns="http://www.w3.org/2000/svg">
<path d="M1439.52 16.5892C1376.11 16.1802 1317.95 9.07383 1253.59 11.8697C1195.64 14.3887 1150.41 22.2532 1093.77 25.3911C1034.52 28.6738 963.424 25.2699 905.336 22.5066C846.239 19.6944 790.579 15.65 735.219 11.0282C682.817 6.65438 656.846 13.3807 613.687 17.5754C586.706 20.1975 564.362 19.7198 537.382 17.3709C502.987 14.376 468.172 11.5331 432.577 9.03583C373.08 4.86286 299.823 -0.113581 234.87 1.22915C151.101 2.96276 85.1084 15.0799 0.529444 16.562" stroke="url(#paint0_linear_0_5290)" stroke-width="0.3" stroke-miterlimit="10"/>
<defs>
<linearGradient id="paint0_linear_0_5290" x1="-1.03465e+06" y1="-12920.1" x2="-1.03465e+06" y2="-12596.1" gradientUnits="userSpaceOnUse">
<stop stop-color="#592CB8"/>
<stop offset="1" stop-color="#2C66B8"/>
</linearGradient>
</defs>
</svg>
