<svg width="1439" height="19" viewBox="0 0 1439 19" fill="none" xmlns="http://www.w3.org/2000/svg">
<path d="M1439 8.40887C1378.57 8.43059 1315.37 7.77551 1255.39 9.16348C1176.01 11.0002 1099.58 15.6944 1020.56 17.9347C957.608 19.7208 907.084 17.6759 850.555 12.6416C805.847 8.66041 760.94 4.06218 709.807 3.8197C652.328 3.55006 598.957 9.63579 547.104 13.3763C519.944 15.3252 491.314 17.1511 461.706 16.7313C432.727 16.3187 405.286 14.1092 379.945 11.6644C328.862 6.74765 279.098 -0.0203063 218.312 0.497243C143.466 1.13604 75.2847 7.96009 0.0290638 8.40344" stroke="url(#paint0_linear_0_5265)" stroke-width="0.3" stroke-miterlimit="10"/>
<defs>
<linearGradient id="paint0_linear_0_5265" x1="-1.03463e+06" y1="-9088.44" x2="-1.03463e+06" y2="-8860.55" gradientUnits="userSpaceOnUse">
<stop stop-color="#592CB8"/>
<stop offset="1" stop-color="#2C66B8"/>
</linearGradient>
</defs>
</svg>
