<svg width="1440" height="27" viewBox="0 0 1440 27" fill="none" xmlns="http://www.w3.org/2000/svg">
<path d="M1439.59 16.2314C1377.21 15.7029 1317.96 8.88432 1254.84 11.615C1195.99 14.1648 1149.72 22.0692 1092.25 25.283C1032.75 28.6145 962.735 25.3482 904.727 22.3569C846.249 19.3439 790.419 15.1474 735.249 10.5655C710.167 8.4844 691.66 8.04647 666.718 10.5293C647.332 12.4565 631.374 15.3446 612.048 17.29C584.878 20.0243 563.373 19.5809 535.553 17.4058C500.788 14.6914 466.213 11.8828 431.149 9.28786C371.192 4.84888 300.623 -0.395377 234.421 0.815254C150.371 2.35343 85.7581 15.1329 0.589596 16.2314" stroke="url(#paint0_linear_0_5287)" stroke-width="0.3" stroke-miterlimit="10"/>
<defs>
<linearGradient id="paint0_linear_0_5287" x1="-1.03466e+06" y1="-13078.1" x2="-1.03466e+06" y2="-12750.2" gradientUnits="userSpaceOnUse">
<stop stop-color="#592CB8"/>
<stop offset="1" stop-color="#2C66B8"/>
</linearGradient>
</defs>
</svg>
