<svg width="1440" height="25" viewBox="0 0 1440 25" fill="none" xmlns="http://www.w3.org/2000/svg">
<path d="M1439.41 15.3495C1374.7 14.9677 1316.91 7.56818 1251.1 10.3767C1193.35 12.8414 1146.75 20.2373 1089.9 23.12C1030.73 26.1203 961.096 22.3129 903.388 19.584C845.859 16.8696 790.869 13.0314 734.569 9.64742C684.106 6.6127 653.168 12.5084 609.11 15.6716C581.69 17.6405 558.447 17.0958 532.335 14.7668C498.989 11.7837 464.608 9.19599 429.41 7.01987C370.223 3.40064 295.816 -0.68185 232.822 0.973946C151.52 3.10929 81.591 12.4397 0.459555 14.8555" stroke="url(#paint0_linear_0_5295)" stroke-width="0.3" stroke-miterlimit="10"/>
<defs>
<linearGradient id="paint0_linear_0_5295" x1="-1.03462e+06" y1="-11861.4" x2="-1.03462e+06" y2="-11564" gradientUnits="userSpaceOnUse">
<stop stop-color="#592CB8"/>
<stop offset="1" stop-color="#2C66B8"/>
</linearGradient>
</defs>
</svg>
