<svg width="1440" height="15" viewBox="0 0 1440 15" fill="none" xmlns="http://www.w3.org/2000/svg">
<path d="M1439.07 14.665C1366.12 13.8272 1305.79 5.16819 1230.63 6.6756C1173.14 7.83013 1119.38 12.4157 1061.67 13.2897C1004.71 14.1511 945.297 10.9047 889.368 9.28687C835.976 7.73965 782.535 6.74074 728.824 8.28615C675.952 9.80623 622.221 10.0415 569.808 7.81565C540.02 6.54892 513.569 4.03899 484.72 2.36329C457.48 0.781686 428.76 0.454146 400.381 0.819688C335.927 1.6503 277.18 6.9398 213.886 8.31873C142.937 9.85871 69.6997 6.59416 0.0999503 10.1428" stroke="url(#paint0_linear_0_5314)" stroke-width="0.3" stroke-miterlimit="10"/>
<defs>
<linearGradient id="paint0_linear_0_5314" x1="-1.03463e+06" y1="-7019.47" x2="-1.03463e+06" y2="-6843.45" gradientUnits="userSpaceOnUse">
<stop stop-color="#592CB8"/>
<stop offset="1" stop-color="#2C66B8"/>
</linearGradient>
</defs>
</svg>
