<svg width="1440" height="16" viewBox="0 0 1440 16" fill="none" xmlns="http://www.w3.org/2000/svg">
<path d="M1439 15.6011C1364.49 14.6963 1303.6 5.81288 1226.8 7.11761C1169.2 8.09842 1114.24 12.1682 1056.28 12.655C999.708 13.131 941.94 9.81574 886.21 8.36986C832.888 6.98912 780.356 6.61815 727.874 9.09371C672.554 11.6941 617.364 10.6626 563.393 7.48677C533.974 5.75678 506.604 2.90302 477.125 1.2997C450.474 -0.14799 422.165 -0.0466518 394.895 0.722434C364.756 1.57295 335.567 3.27399 306.828 5.08541C275.911 7.03437 243.554 9.94784 210.898 10.6663C140.948 12.2044 68.5703 6.35033 0.049765 10.3713" stroke="url(#paint0_linear_0_5318)" stroke-width="0.3" stroke-miterlimit="10"/>
<defs>
<linearGradient id="paint0_linear_0_5318" x1="-1.03462e+06" y1="-7748.05" x2="-1.03462e+06" y2="-7553.78" gradientUnits="userSpaceOnUse">
<stop stop-color="#592CB8"/>
<stop offset="1" stop-color="#2C66B8"/>
</linearGradient>
</defs>
</svg>
