<svg width="1440" height="15" viewBox="0 0 1440 15" fill="none" xmlns="http://www.w3.org/2000/svg">
<path d="M1439.08 14.0605C1366.53 13.248 1306.42 4.65056 1231.74 6.2213C1174.28 7.43193 1120.82 12.1605 1063.24 13.1431C1006.18 14.1166 946.326 10.8648 890.307 9.18907C836.846 7.5948 783.134 6.41855 729.103 7.71785C676.841 8.97372 623.59 9.55642 571.627 7.58575C541.779 6.45474 515.578 4.05338 486.918 2.33787C459.538 0.709218 430.659 0.260434 401.98 0.508351C337.296 1.0639 278.139 5.90643 214.725 7.30345C143.526 8.87238 69.9895 6.27378 0.0799524 9.73919" stroke="url(#paint0_linear_0_5313)" stroke-width="0.3" stroke-miterlimit="10"/>
<defs>
<linearGradient id="paint0_linear_0_5313" x1="-1.03466e+06" y1="-6836.35" x2="-1.03466e+06" y2="-6664.93" gradientUnits="userSpaceOnUse">
<stop stop-color="#592CB8"/>
<stop offset="1" stop-color="#2C66B8"/>
</linearGradient>
</defs>
</svg>
