<svg width="28" height="28" viewBox="0 0 28 28" fill="none" xmlns="http://www.w3.org/2000/svg">
<path d="M14 9.99984C12.9391 9.99984 11.9217 10.4213 11.1716 11.1714C10.4214 11.9216 10 12.939 10 13.9998C10 15.0607 10.4214 16.0781 11.1716 16.8283C11.9217 17.5784 12.9391 17.9998 14 17.9998C15.0609 17.9998 16.0783 17.5784 16.8284 16.8283C17.5786 16.0781 18 15.0607 18 13.9998C18 12.939 17.5786 11.9216 16.8284 11.1714C16.0783 10.4213 15.0609 9.99984 14 9.99984ZM14 7.33317C15.7681 7.33317 17.4638 8.03555 18.714 9.28579C19.9643 10.536 20.6667 12.2317 20.6667 13.9998C20.6667 15.7679 19.9643 17.4636 18.714 18.7139C17.4638 19.9641 15.7681 20.6665 14 20.6665C12.2319 20.6665 10.5362 19.9641 9.28595 18.7139C8.03571 17.4636 7.33333 15.7679 7.33333 13.9998C7.33333 12.2317 8.03571 10.536 9.28595 9.28579C10.5362 8.03555 12.2319 7.33317 14 7.33317ZM22.6667 6.99984C22.6667 7.44186 22.4911 7.86579 22.1785 8.17835C21.8659 8.49091 21.442 8.6665 21 8.6665C20.558 8.6665 20.134 8.49091 19.8215 8.17835C19.5089 7.86579 19.3333 7.44186 19.3333 6.99984C19.3333 6.55781 19.5089 6.13389 19.8215 5.82133C20.134 5.50877 20.558 5.33317 21 5.33317C21.442 5.33317 21.8659 5.50877 22.1785 5.82133C22.4911 6.13389 22.6667 6.55781 22.6667 6.99984ZM14 3.33317C10.7013 3.33317 10.1627 3.3425 8.628 3.4105C7.58266 3.45984 6.88133 3.59984 6.23066 3.85317C5.652 4.07717 5.23466 4.34517 4.79066 4.7905C4.37334 5.1937 4.05247 5.68595 3.852 6.2305C3.59866 6.88384 3.45866 7.58384 3.41066 8.62784C3.34133 10.0998 3.33333 10.6145 3.33333 13.9998C3.33333 17.2985 3.34266 17.8372 3.41066 19.3718C3.46 20.4158 3.6 21.1185 3.852 21.7678C4.07866 22.3478 4.34533 22.7652 4.788 23.2078C5.23733 23.6558 5.65466 23.9238 6.228 24.1452C6.88666 24.3998 7.588 24.5412 8.628 24.5892C10.1 24.6585 10.6147 24.6665 14 24.6665C17.2987 24.6665 17.8373 24.6572 19.372 24.5892C20.4147 24.5398 21.1173 24.3998 21.768 24.1478C22.3453 23.9225 22.7653 23.6545 23.208 23.2118C23.6573 22.7625 23.9253 22.3452 24.1467 21.7718C24.4 21.1145 24.5413 20.4118 24.5893 19.3718C24.6587 17.8998 24.6667 17.3852 24.6667 13.9998C24.6667 10.7012 24.6573 10.1625 24.5893 8.62784C24.54 7.58517 24.4 6.88117 24.1467 6.2305C23.9457 5.68651 23.6254 5.19445 23.2093 4.7905C22.8063 4.37297 22.314 4.05206 21.7693 3.85184C21.116 3.5985 20.4147 3.4585 19.372 3.4105C17.9 3.34117 17.3853 3.33317 14 3.33317ZM14 0.666504C17.6227 0.666504 18.0747 0.679837 19.496 0.746504C20.916 0.813171 21.8827 1.03584 22.7333 1.3665C23.6133 1.70517 24.3547 2.16384 25.096 2.90384C25.774 3.57037 26.2986 4.37662 26.6333 5.2665C26.9627 6.11584 27.1867 7.08384 27.2533 8.50384C27.316 9.92517 27.3333 10.3772 27.3333 13.9998C27.3333 17.6225 27.32 18.0745 27.2533 19.4958C27.1867 20.9158 26.9627 21.8825 26.6333 22.7332C26.2996 23.6235 25.7748 24.43 25.096 25.0958C24.4293 25.7736 23.6231 26.2982 22.7333 26.6332C21.884 26.9625 20.916 27.1865 19.496 27.2532C18.0747 27.3158 17.6227 27.3332 14 27.3332C10.3773 27.3332 9.92533 27.3198 8.504 27.2532C7.084 27.1865 6.11733 26.9625 5.26666 26.6332C4.37643 26.2991 3.57003 25.7744 2.904 25.0958C2.22587 24.4294 1.70124 23.6231 1.36666 22.7332C1.036 21.8838 0.813331 20.9158 0.746664 19.4958C0.683997 18.0745 0.666664 17.6225 0.666664 13.9998C0.666664 10.3772 0.679997 9.92517 0.746664 8.50384C0.813331 7.0825 1.036 6.11717 1.36666 5.2665C1.70031 4.37608 2.22507 3.5696 2.904 2.90384C3.57023 2.22548 4.37657 1.70081 5.26666 1.3665C6.11733 1.03584 7.08266 0.813171 8.504 0.746504C9.92533 0.683837 10.3773 0.666504 14 0.666504Z" fill="#E3E6FF"/>
</svg>
