<svg width="25" height="23" viewBox="0 0 25 23" fill="none" xmlns="http://www.w3.org/2000/svg">
<path d="M12.2484 22.3511C8.51261 22.3511 3.62734 21.7025 0.753662 20.6214L2.47787 15.8646C5.63892 17.1619 9.08734 17.8106 12.5358 17.8106C15.1221 17.8106 16.2715 17.1619 16.2715 16.0808C16.2715 14.9998 14.8347 14.5673 11.6737 13.9187C5.35155 13.0538 1.3284 11.3241 1.3284 7.21598C1.3284 3.32409 5.63892 0.729492 13.3979 0.729492C17.1336 0.729492 21.7315 1.59436 24.3179 2.45922L22.5936 7.21598C19.4326 6.1349 15.6968 5.48625 13.1105 5.48625C10.8115 5.48625 9.66207 5.91868 9.66207 6.99976C9.66207 8.08084 11.3863 8.51327 14.26 8.94571C20.5821 10.0268 24.6052 11.5403 24.6052 15.6484C24.6052 19.3241 20.2947 22.3511 12.2484 22.3511Z" fill="white"/>
</svg>
