<svg width="35" height="30" viewBox="0 0 35 30" fill="none" xmlns="http://www.w3.org/2000/svg">
<path fill-rule="evenodd" clip-rule="evenodd" d="M12.6298 2.81836L10.2089 0.262775C13.8534 -0.204374 23.4701 0.394667 32.7794 6.528C32.9356 7.1874 32.7794 8.1767 32.7794 8.1767L33.5604 8.58893C34.2372 9.60568 35.388 12.4965 34.5757 15.9259C33.7635 19.3552 32.3629 20.8172 31.7641 21.1194C30.5145 21.1194 28.3903 21.8778 27.7031 25.2413C27.0157 28.6047 25.6985 29.3357 25.1257 29.2807L11.3803 29.4456L2.32082 23.8398L0.993164 12.2162L3.57045 8.58893L8.17829 4.63201L11.4584 3.23055L12.6298 2.81836ZM28.8642 7.61997C28.258 8.28312 27.6913 8.60136 27.5294 8.68759C23.9901 7.89678 22.715 5.97334 22.715 5.97334C26.0535 5.95185 29.0666 6.78591 31.2712 8.19676C31.2712 8.19676 30.0779 7.79061 28.8642 7.61997Z" fill="white"/>
</svg>
