<svg width="171" height="30" viewBox="0 0 171 30" fill="none" xmlns="http://www.w3.org/2000/svg">
<path fill-rule="evenodd" clip-rule="evenodd" d="M51.8664 3.29668C50.2119 1.48523 47.6764 0.415039 44.4419 0.415039H32.9736V29.2325H37.4952L37.494 20.3576L37.4904 20.3598V13.9335L37.494 13.934L37.4952 5.0257H44.074C47.4161 5.0257 49.358 6.634 49.4029 9.69139L49.4041 9.88352L49.4007 10.0838C49.3096 12.9309 47.272 14.7002 44.1108 14.7002L42.1654 14.6992L39.8367 19.1868L43.1552 19.1875L49.4774 29.2325H54.8443L47.8964 18.3229L48.1281 18.2454C51.5329 17.0591 53.9443 14.2892 53.9975 9.74908L53.9987 9.51313C53.9987 7.00187 53.2265 4.9023 51.8664 3.29668ZM110.772 4.26336C108.13 1.7929 105.342 0.415875 100.902 0.415875C93.2103 0.415875 87.7792 6.99368 87.6624 14.8186L87.6594 15.1579C87.6594 23.42 92.9432 29.7382 100.977 29.7382C105.526 29.7382 109.121 27.7132 111.688 25.3236V13.4165L107.323 17.7905V23.0555C105.746 24.3516 103.582 25.2021 101.124 25.2021C95.9554 25.2021 92.4955 21.0344 92.3954 15.3333L92.3923 14.996C92.3923 9.56898 96.0252 5.0329 100.72 5.0329C103.948 5.0329 105.93 6.16696 107.91 8.02992L110.772 4.26336ZM143.347 14.996C143.347 7.01742 137.845 0.415875 129.956 0.415875C122.154 0.415875 116.613 6.99518 116.494 14.8213L116.493 15.1579C116.493 23.1366 121.997 29.7382 129.883 29.7382C137.686 29.7382 143.226 23.1589 143.344 15.3326L143.347 14.996ZM27.5308 29.2521L16.2318 0.699308H12.0497L0.750488 29.2521L5.26192 29.2519L14.0673 6.65289L22.9375 29.2519L27.5308 29.2521ZM85.7291 29.2521L74.4301 0.699308H70.2479L58.948 29.2521L63.4597 29.2519L72.2662 6.65289L81.1358 29.2519L85.7291 29.2521ZM166.155 20.504L152.398 0.901806H148.215V29.2521H152.654V9.08305L166.815 29.2521H170.594V0.901806H166.155V20.504ZM121.226 14.996C121.226 9.48788 124.784 5.0329 129.883 5.0329C134.944 5.0329 138.508 9.43655 138.611 14.8346L138.614 15.1579C138.614 20.666 135.056 25.1211 129.956 25.1211C124.896 25.1211 121.332 20.7175 121.227 15.3194L121.226 14.996Z" fill="white"/>
</svg>
