<svg width="28" height="23" viewBox="0 0 28 23" fill="none" xmlns="http://www.w3.org/2000/svg">
<path d="M16.4221 17.3781C19.2958 17.3781 22.4568 16.5133 25.3305 15.4322L26.1926 20.6214C23.3189 21.7025 19.5831 22.3511 15.56 22.3511C6.36421 22.3511 0.329468 18.4592 0.329468 11.7565C0.329468 5.05382 6.3642 0.729492 14.9852 0.729492C22.7442 0.729492 27.0547 4.18895 27.0547 9.16192C27.0547 10.243 26.7673 11.9727 26.48 12.8376L9.23788 13.0538C9.52525 15.8646 11.8242 17.3781 16.4221 17.3781ZM18.721 9.16192C18.721 6.78355 17.2842 5.27003 14.6979 5.27003C11.5368 5.27003 9.81262 7.21598 9.52525 9.59436H19.0084V9.16192H18.721Z" fill="white"/>
</svg>
