<svg width="57" height="32" viewBox="0 0 57 32" fill="none" xmlns="http://www.w3.org/2000/svg">
<path fill-rule="evenodd" clip-rule="evenodd" d="M42.7386 0.679199C40.3303 0.679199 38.1408 1.29841 36.2604 2.41143C35.2506 3.00946 34.3296 3.74914 33.5131 4.61474C33.0908 5.06292 32.6975 5.54546 32.3324 6.05711L21.1289 19.8878C21.1289 19.8878 17.3224 25.0942 14.0252 25.0942C9.64112 25.0942 6.66851 21.39 6.66988 16.196C6.66988 15.7363 6.70836 15.2876 6.76561 14.8452C7.30554 10.6552 10.2933 7.33511 13.9615 7.30533C16.6053 7.28406 18.7596 8.58435 20.062 10.7345L24.136 5.75696C21.8012 2.59649 18.2737 0.679199 14.0252 0.679199C6.16659 0.679199 0.625305 7.24612 0.625305 16.2003C0.625305 21.0644 2.26342 25.2218 5.01758 28.0063C6.39923 29.5074 8.30068 30.6508 10.497 31.2472C10.5112 31.2509 10.5245 31.2559 10.5387 31.2596C10.6729 31.296 10.8094 31.3275 10.9454 31.3595C11.924 31.594 12.9522 31.7204 14.0252 31.7204C14.2015 31.7204 14.3714 31.703 14.5449 31.696C14.5605 31.6954 14.5761 31.6943 14.5916 31.6938C15.3253 31.6629 16.0374 31.5766 16.7266 31.4247C19.2418 30.8987 21.4139 29.6599 22.9485 27.9857C22.9503 27.984 22.9522 27.983 22.954 27.9818C23.0602 27.8814 23.156 27.7654 23.2544 27.6529C23.3033 27.5971 23.3575 27.5473 23.4041 27.4886L35.7296 12.107L37.0811 10.3486C38.1756 9.05158 39.8494 7.23097 42.9951 7.28202C47.0132 7.3477 50.1273 11.4189 50.126 16.1809C50.1242 21.372 47.4666 24.9965 43.0853 24.9965C40.2336 24.9965 37.8747 23.4543 36.569 20.9504C35.8683 19.6067 35.4663 17.9901 35.4663 16.1759C35.4663 16.1346 35.4704 16.0956 35.4704 16.055L30.3972 22.5627C30.8802 23.926 31.5224 25.1725 32.3 26.2785C34.6782 29.6593 38.3422 31.7204 42.7386 31.7204C50.5972 31.7204 56.1385 25.1544 56.1385 16.2003C56.1385 7.24612 50.5972 0.679199 42.7386 0.679199Z" fill="white"/>
</svg>
