<svg width="22" height="32" viewBox="0 0 22 32" fill="none" xmlns="http://www.w3.org/2000/svg">
<path fill-rule="evenodd" clip-rule="evenodd" d="M0.196838 22.3721H6.24084C6.29175 24.3419 7.75254 25.6553 10.6741 25.6553C13.747 25.6553 15.0565 24.1629 15.0565 22.3721C15.0565 20.1036 12.8406 19.8052 10.1707 19.3873C6.34123 18.7904 0.700273 18.0143 0.700273 10.7913C0.700273 4.7615 4.57923 0.822266 10.5737 0.822266C16.6686 0.822266 20.3963 4.88146 20.5476 10.075H14.604C14.4527 8.28412 13.0414 7.03046 10.6741 7.03046C8.05517 7.03046 6.74428 8.52284 6.74428 10.254C6.74428 12.5224 9.01253 12.8806 11.6824 13.2985C15.007 13.8356 21.102 14.6117 21.102 21.9542C21.102 27.9236 17.0222 31.8634 10.6741 31.8634C4.32751 31.8634 0.346736 27.8638 0.196838 22.3721Z" fill="white"/>
</svg>
