<svg width="44" height="22" viewBox="0 0 44 22" fill="none" xmlns="http://www.w3.org/2000/svg">
<path d="M34.178 9.59476C34.178 7.21638 32.7412 6.35151 30.4422 6.35151C28.718 6.35151 27.2812 7.00016 26.1317 7.64881V21.7029H17.2233V9.59476C17.2233 7.21638 15.7864 6.35151 13.4875 6.35151C11.7633 6.35151 10.3264 6.78394 9.17697 7.64881V21.7029H0.268555V0.946104H9.17697V3.5407C11.4759 1.59475 14.3496 0.513672 17.798 0.513672C21.2464 0.513672 24.1201 1.81097 25.5569 4.18935C28.1433 2.02719 31.3043 0.513672 35.0401 0.513672C40.2127 0.513672 43.6611 3.10827 43.6611 7.64881V21.7029H34.7527L34.178 9.59476Z" fill="white"/>
</svg>
