<svg width="38" height="42" viewBox="0 0 38 42" fill="none" xmlns="http://www.w3.org/2000/svg">
<path d="M36.25 28.6668V13.3335C36.2493 12.6612 36.0719 12.001 35.7354 11.419C35.399 10.837 34.9155 10.3537 34.3333 10.0176L20.9167 2.35097C20.3339 2.01453 19.6729 1.8374 19 1.8374C18.3271 1.8374 17.6661 2.01453 17.0833 2.35097L3.66667 10.0176C3.0845 10.3537 2.60096 10.837 2.26455 11.419C1.92814 12.001 1.75069 12.6612 1.75 13.3335V28.6668C1.75069 29.339 1.92814 29.9993 2.26455 30.5812C2.60096 31.1632 3.0845 31.6465 3.66667 31.9826L17.0833 39.6493C17.6661 39.9857 18.3271 40.1629 19 40.1629C19.6729 40.1629 20.3339 39.9857 20.9167 39.6493L34.3333 31.9826C34.9155 31.6465 35.399 31.1632 35.7354 30.5812C36.0719 29.9993 36.2493 29.339 36.25 28.6668Z" stroke="white" stroke-width="3.5" stroke-linecap="round" stroke-linejoin="round"/>
</svg>
