<svg width="28" height="23" viewBox="0 0 28 23" fill="none" xmlns="http://www.w3.org/2000/svg">
<path d="M19.4 3.39983C18.3866 3.39966 17.4137 3.79732 16.6905 4.50725C15.9674 5.21718 15.5519 6.18262 15.5333 7.19583L15.496 9.29583C15.4938 9.40858 15.4678 9.5196 15.4197 9.62159C15.3716 9.72359 15.3025 9.81426 15.2169 9.88767C15.1313 9.96107 15.0311 10.0155 14.9229 10.0475C14.8148 10.0795 14.7011 10.0882 14.5893 10.0732L12.508 9.79049C9.76934 9.41716 7.14534 8.15583 4.62801 6.05849C3.83068 10.4718 5.38801 13.5292 9.13868 15.8878L11.468 17.3518C11.5787 17.4214 11.6706 17.517 11.7358 17.6303C11.801 17.7436 11.8374 17.8712 11.8419 18.0018C11.8463 18.1324 11.8187 18.2622 11.7615 18.3797C11.7042 18.4972 11.619 18.5989 11.5133 18.6758L9.39068 20.2265C10.6533 20.3052 11.852 20.2492 12.8467 20.0518C19.1373 18.7958 23.32 14.0625 23.32 6.25449C23.32 5.61716 21.9707 3.39983 19.4 3.39983ZM12.8667 7.14649C12.8899 5.86123 13.2919 4.61139 14.0221 3.55346C14.7523 2.49553 15.7784 1.67652 16.9719 1.19898C18.1654 0.721446 19.4732 0.6066 20.7317 0.868823C21.9901 1.13105 23.1432 1.75869 24.0467 2.67316C24.9947 2.66649 25.8013 2.90649 27.6053 1.81316C27.1587 3.99983 26.9387 4.94916 25.9867 6.25449C25.9867 16.4438 19.724 21.3985 13.3693 22.6665C9.01201 23.5358 2.67601 22.1078 0.860008 20.2118C1.78534 20.1398 5.54534 19.7358 7.71868 18.1452C5.88001 16.9332 -1.43866 12.6265 3.37068 1.04783C5.62801 3.68383 7.91734 5.47849 10.2373 6.43049C11.7813 7.06383 12.16 7.05049 12.868 7.14783L12.8667 7.14649Z" fill="#E3E6FF"/>
</svg>
